<?xml version="1.0" encoding="utf-8"?>
<!-- Generator: Adobe Illustrator 16.0.0, SVG Export Plug-In . SVG Version: 6.00 Build 0)  -->
<!DOCTYPE svg PUBLIC "-//W3C//DTD SVG 1.1//EN" "http://www.w3.org/Graphics/SVG/1.1/DTD/svg11.dtd">
<svg version="1.1" id="Layer_1" xmlns="http://www.w3.org/2000/svg" xmlns:xlink="http://www.w3.org/1999/xlink" x="0px" y="0px"
	 width="1000px" height="1000px" viewBox="0 0 1000 1000" enable-background="new 0 0 1000 1000" xml:space="preserve">
<rect fill="#88C5CC" width="999.2" height="998"/>
<g>
	<path fill="#88C5CC" d="M966.5,495.3c0,262.8-213,475.8-475.8,475.8c-262.8,0-475.8-213-475.8-475.8s213-475.8,475.8-475.8
		C753.5,19.5,966.5,232.5,966.5,495.3L966.5,495.3z"/>
	<path fill="#1E2C33" d="M126.4,584.5V258.1c0-9.3,6-15.5,14.9-15.5h609.6c8.9,0,14.9,6.2,14.9,15.5v326.4H126.4z"/>
	<path fill="#F5F5F5" d="M126.4,584.5V644c0,8.9,6,14.9,14.9,14.9h609.6c8.9,0,14.9-6,14.9-14.9v-59.5H126.4z"/>
	<rect x="156.1" y="279.7" fill="#586874" width="579.9" height="275.1"/>
	<path fill="#8D9CCC" d="M716.5,527.5c0,6.6-5.4,12-12,12h-210c-6.6,0-12-5.4-12-12v-213c0-6.6,5.4-12,12-12h210c6.6,0,12,5.4,12,12
		V527.5z"/>
	<rect x="364.3" y="658.9" fill="#E6E6E6" width="163.6" height="66.9"/>
	<path fill="#F5F5F5" d="M579.9,740.6c0-8.2-6.7-14.9-14.9-14.9H327.1c-8.2,0-14.9,6.7-14.9,14.9c0,8.2,6.7,14.9,14.9,14.9H565
		C573.2,755.5,579.9,748.8,579.9,740.6L579.9,740.6z"/>
	<path fill="#1E2C33" d="M460.9,621.7c0,8.2-6.7,14.9-14.9,14.9s-14.9-6.7-14.9-14.9s6.7-14.9,14.9-14.9
		C454.3,606.8,460.9,613.5,460.9,621.7L460.9,621.7z"/>
	<path fill="#F5F5F5" d="M431.2,763H855v14.9c0,7.9-7,7.4-14.9,7.4h-394c-7.9,0-14.9,0.4-14.9-7.4V763L431.2,763z"/>
	<path fill="#CCCCCC" d="M692.3,763c0,0-4.3,7.4-9.5,7.4h-66.7c-5.3,0-9.5-7.4-9.5-7.4H692.3z"/>
	<path fill="#1E2C33" d="M468.4,763V547.3c0-7.9,7-14.9,14.9-14.9H803c7.9,0,14.9,7,14.9,14.9V763H468.4z"/>
	<rect x="490.7" y="562.2" fill="#586874" width="304.8" height="200.7"/>
	<path fill="#CC584C" d="M650.5,547.3c0,4.1-3.3,7.4-7.4,7.4c-4.1,0-7.4-3.3-7.4-7.4c0-4.1,3.3-7.4,7.4-7.4
		C647.2,539.9,650.5,543.2,650.5,547.3L650.5,547.3z"/>
</g>
<path fill="#88C5CC" d="M459.5,385.5c0,6.6-5.4,12-12,12h-259c-6.6,0-12-5.4-12-12v-71c0-6.6,5.4-12,12-12h259c6.6,0,12,5.4,12,12
	V385.5z"/>
<path fill="#8BCC94" d="M457.5,512.5c0,6.6-5.4,12-12,12h-259c-6.6,0-12-5.4-12-12v-71c0-6.6,5.4-12,12-12h259c6.6,0,12,5.4,12,12
	V512.5z"/>
<polyline fill="#CCCCCC" points="572.6,704.6 553,683.3 544.6,694.6 538.2,689.8 552.3,670.7 571,691 600.4,637.9 622.8,673.9 
	649.1,627 656.1,631 623.2,689.7 600.8,653.7 572.6,704.6 "/>
<rect x="680.7" y="661.5" fill="#FC7A51" width="35.7" height="31.4"/>
<rect x="727.1" y="661.5" fill="#2BE0C6" width="35.7" height="31.4"/>
<rect x="512" y="581.5" fill="#CCCCCC" width="266.9" height="19.5"/>
<rect x="680.7" y="609.8" fill="#FDA589" width="82.1" height="10.3"/>
<rect x="680.7" y="626.1" fill="#6EC6EB" width="82.1" height="10.3"/>
<rect x="512.4" y="725.8" fill="#FDA589" width="267.4" height="10.3"/>
</svg>
